<svg width="928" height="167" viewBox="0 0 928 167" fill="none" xmlns="http://www.w3.org/2000/svg">
<path d="M764.477 0.034668H792.969V141.169H928.001V166.966H764.477V0.034668Z" fill="#171010"/>
<path d="M381.914 0.034668L307.725 141.169L233.486 0.034668H199.741V117.11L132.747 0.034668H95.5282L0 166.966H31.76L61.0388 115.869H167.236L196.515 166.966H228.275V48.4025L290.306 166.966H325.044L387.075 48.4025V166.966H415.61V96.2246H570.291V0.034668H381.865H381.914ZM75.6782 90.0732L114.138 23.1024L152.349 90.0732H75.6782ZM541.756 70.7757H415.659V25.434H541.756V70.7757Z" fill="#171010"/>
<path d="M749.829 0.0361328H584.887V25.8316H749.829V0.0361328Z" fill="#171010"/>
<path d="M749.829 70.4302H584.887V96.2256H749.829V70.4302Z" fill="#171010"/>
<path d="M749.829 141.17H584.887V166.966H749.829V141.17Z" fill="#171010"/>
</svg>
