<svg width="600" height="89" viewBox="0 0 600 89" fill="none" xmlns="http://www.w3.org/2000/svg">
<path d="M523.841 25.3495C530.842 25.3495 536.517 19.6748 536.517 12.6748C536.517 5.67468 530.842 0 523.841 0C516.84 0 511.165 5.67468 511.165 12.6748C511.165 19.6748 516.84 25.3495 523.841 25.3495Z" fill="#F9F5EF"/>
<path d="M568.258 12.6748C568.258 19.693 562.575 25.3495 555.583 25.3495C548.59 25.3495 542.907 19.6668 542.907 12.6748C542.907 5.68269 548.564 0 555.583 0C562.601 0 568.258 5.68269 568.258 12.6748Z" fill="#F9F5EF"/>
<path d="M587.298 25.3495C594.299 25.3495 599.974 19.6748 599.974 12.6748C599.974 5.67468 594.299 0 587.298 0C580.297 0 574.622 5.67468 574.622 12.6748C574.622 19.6748 580.297 25.3495 587.298 25.3495Z" fill="#F9F5EF"/>
<path d="M536.517 44.0736C536.517 51.0918 530.834 56.7483 523.841 56.7483C516.848 56.7483 511.165 51.0656 511.165 44.0736C511.165 37.0815 516.848 31.3988 523.841 31.3988C530.834 31.3988 536.517 37.0815 536.517 44.0736Z" fill="#F9F5EF"/>
<path d="M568.258 44.0736C568.258 51.0918 562.575 56.7483 555.583 56.7483C548.59 56.7483 542.907 51.0656 542.907 44.0736C542.907 37.0815 548.59 31.3988 555.583 31.3988C562.575 31.3988 568.258 37.0815 568.258 44.0736Z" fill="#F9F5EF"/>
<path d="M600 44.0736C600 51.0918 594.317 56.7483 587.324 56.7483C580.332 56.7483 574.649 51.0656 574.649 44.0736C574.649 37.0815 580.332 31.3988 587.324 31.3988C594.317 31.3988 600 37.0815 600 44.0736Z" fill="#F9F5EF"/>
<path d="M536.517 75.4462C536.517 82.4644 530.834 88.1209 523.841 88.1209C516.848 88.1209 511.165 82.4383 511.165 75.4462C511.165 68.4541 516.848 62.7714 523.841 62.7714C530.834 62.7714 536.517 68.4541 536.517 75.4462Z" fill="#F9F5EF"/>
<path d="M568.258 75.4462C568.258 82.4644 562.575 88.1209 555.583 88.1209C548.59 88.1209 542.907 82.4383 542.907 75.4462C542.907 68.4541 548.59 62.7714 555.583 62.7714C562.575 62.7714 568.258 68.4541 568.258 75.4462Z" fill="#F9F5EF"/>
<path d="M600 75.4462C600 82.4644 594.317 88.1209 587.324 88.1209C580.332 88.1209 574.649 82.4383 574.649 75.4462C574.649 68.4541 580.332 62.7714 587.324 62.7714C594.317 62.7714 600 68.4541 600 75.4462Z" fill="#F9F5EF"/>
<path d="M403.763 0H418.822V74.5034H490.188V88.121H403.763V0Z" fill="#F9F5EF"/>
<path d="M201.554 0L162.401 74.5034L123.221 0H105.413V61.8025L70.0568 0H50.4147L0 88.121H16.7613L32.213 61.1478H88.2585L103.71 88.121H120.472V25.5328L153.208 88.121H171.541L204.278 25.5328V88.121H219.337V50.7776H300.969V0H201.528H201.554ZM39.9389 47.5303L60.2358 12.1772L80.4017 47.5303H39.9389ZM285.91 37.3434H219.363V13.408H285.91V37.3434Z" fill="#F9F5EF"/>
<path d="M395.906 0H308.826V13.6175H395.906V0Z" fill="#F9F5EF"/>
<path d="M395.906 37.1601H308.826V50.7776H395.906V37.1601Z" fill="#F9F5EF"/>
<path d="M395.906 74.5034H308.826V88.1209H395.906V74.5034Z" fill="#F9F5EF"/>
</svg>
