<svg width="600" height="89" viewBox="0 0 600 89" fill="none" xmlns="http://www.w3.org/2000/svg">
<path d="M403.763 0H418.822V74.5034H490.188V88.121H403.763V0Z" fill="#F9F5EF"/>
<path d="M201.554 0L162.401 74.5034L123.221 0H105.413V61.8025L70.0568 0H50.4147L0 88.121H16.7613L32.213 61.1478H88.2585L103.71 88.121H120.472V25.5328L153.208 88.121H171.541L204.278 25.5328V88.121H219.337V50.7776H300.969V0H201.528H201.554ZM39.9389 47.5303L60.2358 12.1772L80.4017 47.5303H39.9389ZM285.91 37.3434H219.363V13.408H285.91V37.3434Z" fill="#F9F5EF"/>
<path d="M395.906 0H308.826V13.6175H395.906V0Z" fill="#F9F5EF"/>
<path d="M395.906 37.1601H308.826V50.7776H395.906V37.1601Z" fill="#F9F5EF"/>
<path d="M395.906 74.5034H308.826V88.1209H395.906V74.5034Z" fill="#F9F5EF"/>
</svg>
