<svg width="19" height="24" viewBox="0 0 19 24" fill="none" xmlns="http://www.w3.org/2000/svg">
<path fill-rule="evenodd" clip-rule="evenodd" d="M2.60172 0.29362C2.60172 0.131458 2.73318 0 2.89534 0H14.4107C14.4886 0 14.5633 0.030935 14.6183 0.0859995L18.7566 4.2242C18.8116 4.27925 18.8426 4.35395 18.8426 4.43182V21.1039C18.8426 21.2661 18.7111 21.3975 18.5489 21.3975H16.2339V23.7064C16.2339 23.8685 16.1024 24 15.9402 24H0.29362C0.131459 24 0 23.8685 0 23.7064V2.90115C0 2.73898 0.131459 2.60752 0.29362 2.60752H2.60172V0.29362ZM2.89534 21.3975H15.6466V23.4128H0.587239V3.19477H2.60172V21.1039C2.60172 21.2661 2.73318 21.3975 2.89534 21.3975ZM3.18896 0.58724V20.8103H18.2553V4.72544H14.4107C14.2486 4.72544 14.1171 4.59398 14.1171 4.43182V0.58724H3.18896ZM14.7043 1.00248V4.1382H17.8401L14.7043 1.00248Z" fill="#171010"/>
</svg>
