<svg width="19" height="18" viewBox="0 0 19 18" fill="none" xmlns="http://www.w3.org/2000/svg">
<path d="M2.99331 5.17801C4.42317 5.17801 5.58231 4.01887 5.58231 2.589C5.58231 1.15914 4.42317 0 2.99331 0C1.56344 0 0.404297 1.15914 0.404297 2.589C0.404297 4.01887 1.56344 5.17801 2.99331 5.17801Z" fill="#171010"/>
<path d="M12.0647 2.589C12.0647 4.02259 10.904 5.17801 9.47572 5.17801C8.04749 5.17801 6.88672 4.01724 6.88672 2.589C6.88672 1.16077 8.04214 0 9.47572 0C10.9093 0 12.0647 1.16077 12.0647 2.589Z" fill="#171010"/>
<path d="M15.9542 5.17801C17.3841 5.17801 18.5432 4.01887 18.5432 2.589C18.5432 1.15914 17.3841 0 15.9542 0C14.5244 0 13.3652 1.15914 13.3652 2.589C13.3652 4.01887 14.5244 5.17801 15.9542 5.17801Z" fill="#171010"/>
<path d="M5.58231 9.00258C5.58231 10.4362 4.42154 11.5916 2.99331 11.5916C1.56507 11.5916 0.404297 10.4308 0.404297 9.00258C0.404297 7.57435 1.56507 6.41357 2.99331 6.41357C4.42154 6.41357 5.58231 7.57435 5.58231 9.00258Z" fill="#171010"/>
<path d="M12.0647 9.00258C12.0647 10.4362 10.904 11.5916 9.47572 11.5916C8.04749 11.5916 6.88672 10.4308 6.88672 9.00258C6.88672 7.57435 8.04749 6.41357 9.47572 6.41357C10.904 6.41357 12.0647 7.57435 12.0647 9.00258Z" fill="#171010"/>
<path d="M18.5491 9.00258C18.5491 10.4362 17.3883 11.5916 15.9601 11.5916C14.5319 11.5916 13.3711 10.4308 13.3711 9.00258C13.3711 7.57435 14.5319 6.41357 15.9601 6.41357C17.3883 6.41357 18.5491 7.57435 18.5491 9.00258Z" fill="#171010"/>
<path d="M5.58231 15.4108C5.58231 16.8444 4.42154 17.9998 2.99331 17.9998C1.56507 17.9998 0.404297 16.839 0.404297 15.4108C0.404297 13.9825 1.56507 12.8218 2.99331 12.8218C4.42154 12.8218 5.58231 13.9825 5.58231 15.4108Z" fill="#171010"/>
<path d="M12.0647 15.4108C12.0647 16.8444 10.904 17.9998 9.47572 17.9998C8.04749 17.9998 6.88672 16.839 6.88672 15.4108C6.88672 13.9825 8.04749 12.8218 9.47572 12.8218C10.904 12.8218 12.0647 13.9825 12.0647 15.4108Z" fill="#171010"/>
<path d="M18.5491 15.4108C18.5491 16.8444 17.3883 17.9998 15.9601 17.9998C14.5319 17.9998 13.3711 16.839 13.3711 15.4108C13.3711 13.9825 14.5319 12.8218 15.9601 12.8218C17.3883 12.8218 18.5491 13.9825 18.5491 15.4108Z" fill="#171010"/>
</svg>
