<svg width="17" height="16" viewBox="0 0 17 16" fill="none" xmlns="http://www.w3.org/2000/svg">
<g id="Group">
<path id="Vector" d="M3.17244 4.60267C4.44343 4.60267 5.47377 3.57233 5.47377 2.30134C5.47377 1.03034 4.44343 0 3.17244 0C1.90144 0 0.871094 1.03034 0.871094 2.30134C0.871094 3.57233 1.90144 4.60267 3.17244 4.60267Z" fill="#ffffff"/>
<path id="Vector_2" d="M11.2355 2.30134C11.2355 3.57563 10.2037 4.60267 8.93415 4.60267C7.66461 4.60267 6.63281 3.57088 6.63281 2.30134C6.63281 1.0318 7.65986 0 8.93415 0C10.2084 0 11.2355 1.0318 11.2355 2.30134Z" fill="#ffffff"/>
<path id="Vector_3" d="M14.692 4.60267C15.963 4.60267 16.9933 3.57233 16.9933 2.30134C16.9933 1.03034 15.963 0 14.692 0C13.421 0 12.3906 1.03034 12.3906 2.30134C12.3906 3.57233 13.421 4.60267 14.692 4.60267Z" fill="#ffffff"/>
<path id="Vector_4" d="M5.47377 8.00251C5.47377 9.2768 4.44197 10.3038 3.17244 10.3038C1.9029 10.3038 0.871094 9.27205 0.871094 8.00251C0.871094 6.73297 1.9029 5.70117 3.17244 5.70117C4.44197 5.70117 5.47377 6.73297 5.47377 8.00251Z" fill="#ffffff"/>
<path id="Vector_5" d="M11.2355 8.00251C11.2355 9.2768 10.2037 10.3038 8.93415 10.3038C7.66461 10.3038 6.63281 9.27205 6.63281 8.00251C6.63281 6.73297 7.66461 5.70117 8.93415 5.70117C10.2037 5.70117 11.2355 6.73297 11.2355 8.00251Z" fill="#ffffff"/>
<path id="Vector_6" d="M17.0011 8.00251C17.0011 9.2768 15.9693 10.3038 14.6998 10.3038C13.4302 10.3038 12.3984 9.27205 12.3984 8.00251C12.3984 6.73297 13.4302 5.70117 14.6998 5.70117C15.9693 5.70117 17.0011 6.73297 17.0011 8.00251Z" fill="#ffffff"/>
<path id="Vector_7" d="M5.47377 13.6988C5.47377 14.9731 4.44197 16.0001 3.17244 16.0001C1.9029 16.0001 0.871094 14.9683 0.871094 13.6988C0.871094 12.4293 1.9029 11.3975 3.17244 11.3975C4.44197 11.3975 5.47377 12.4293 5.47377 13.6988Z" fill="#ffffff"/>
<path id="Vector_8" d="M11.2355 13.6988C11.2355 14.9731 10.2037 16.0001 8.93415 16.0001C7.66461 16.0001 6.63281 14.9683 6.63281 13.6988C6.63281 12.4293 7.66461 11.3975 8.93415 11.3975C10.2037 11.3975 11.2355 12.4293 11.2355 13.6988Z" fill="#ffffff"/>
<path id="Vector_9" d="M17.0011 13.6988C17.0011 14.9731 15.9693 16.0001 14.6998 16.0001C13.4302 16.0001 12.3984 14.9683 12.3984 13.6988C12.3984 12.4293 13.4302 11.3975 14.6998 11.3975C15.9693 11.3975 17.0011 12.4293 17.0011 13.6988Z" fill="#ffffff"/>
</g>
</svg>
